<svg xmlns="http://www.w3.org/2000/svg" viewBox="0 0 800 600">
  <g fill="black">
    <path d="M400 580 l20 -400 c0 0 0 -50 -10 -70 c0 0 80 40 90 80 c0 0 40 -100 -40 -160 c0 0 100 20 120 100 c0 0 60 -120 -60 -180 c0 0 120 0 140 100 c0 0 40 -80 -20 -140 c0 0 100 20 100 100 c0 0 40 -60 0 -120 c0 0 80 40 60 120 c0 0 60 -40 40 -100 c0 0 60 60 20 120 c0 0 40 -20 40 -80 c0 0 40 80 0 120 c0 0 40 0 40 -40 c0 0 0 80 -40 100 c0 0 60 20 60 -20 c0 0 -20 80 -80 100 c0 0 60 40 80 0 c0 0 -40 80 -100 80 c0 0 40 40 80 20 c0 0 -60 60 -120 40 c0 0 20 40 60 40 c0 0 -80 40 -120 0 c0 0 0 40 40 60 c0 0 -80 0 -100 -40 c0 0 -20 40 20 60 c0 0 -60 20 -100 -20 c0 0 0 40 20 60 c0 0 -80 -20 -100 -80 c0 0 -20 40 0 80 c0 0 -60 -40 -60 -100 c0 0 -40 40 -20 80 c0 0 -80 -60 -60 -120 c0 0 -60 20 -40 80 c0 0 -80 -80 -40 -140 c0 0 -80 0 -60 60 c0 0 -60 -80 -20 -140 c0 0 -80 20 -80 80 c0 0 -40 -100 20 -160 c0 0 -100 20 -80 100 c0 0 -60 -120 40 -180 c0 0 -120 40 -100 120 c0 0 -40 -140 80 -180 c0 0 -100 0 -100 80 c0 0 0 -120 100 -140 c0 0 -60 -20 -80 20 c0 0 40 -100 140 -80 l20 400 l20 0"/>
  </g>
</svg>
